<svg width="19" height="19" viewBox="0 0 19 19" fill="none" xmlns="http://www.w3.org/2000/svg">
<path d="M9.37129 17.7426C13.9947 17.7426 17.7426 13.9947 17.7426 9.37129C17.7426 4.74782 13.9947 1 9.37129 1C4.74782 1 1 4.74782 1 9.37129C1 13.9947 4.74782 17.7426 9.37129 17.7426Z" stroke="#9245F5" stroke-width="1.5" stroke-linecap="round" stroke-linejoin="round"/>
<path d="M6.02289 1.83716H6.86002C5.22765 6.7273 5.22765 12.0153 6.86002 16.9055H6.02289M11.8828 1.83716C13.5152 6.7273 13.5152 12.0153 11.8828 16.9055" stroke="#9245F5" stroke-width="1.5" stroke-linecap="round" stroke-linejoin="round"/>
<path d="M1.83691 12.7199V11.8828C6.72706 13.5152 12.0151 13.5152 16.9052 11.8828V12.7199M1.83691 6.86002C6.72706 5.22765 12.0151 5.22765 16.9052 6.86002" stroke="#9245F5" stroke-width="1.5" stroke-linecap="round" stroke-linejoin="round"/>
</svg>
